<svg width="14" height="18" viewBox="0 0 14 18" fill="none" xmlns="http://www.w3.org/2000/svg">
<path fill-rule="evenodd" clip-rule="evenodd" d="M6.66449 0.875C5.6899 0.875 4.88594 1.65358 4.88594 2.63636V2.67961C2.64403 3.43119 1.42527 5.54773 1.42527 7.93939V11.4656L0.619603 12.2593C-0.269809 13.1355 0.362344 14.625 1.59654 14.625H11.7248C12.9453 14.625 13.6085 13.145 12.7094 12.2593L11.9037 11.4656V7.93939C11.9037 5.55465 10.6783 3.43284 8.44305 2.68015V2.63636C8.44305 1.65358 7.63909 0.875 6.66449 0.875ZM6.13594 2.63636C6.13594 2.36157 6.36249 2.125 6.66449 2.125C6.9665 2.125 7.19305 2.36157 7.19305 2.63636V3.15152V3.64704L7.67552 3.76005C9.53367 4.19526 10.6537 5.83899 10.6537 7.93939V11.7273V11.9889L10.8401 12.1725L11.8322 13.1498C11.8599 13.1771 11.8675 13.1992 11.8703 13.2153C11.8737 13.235 11.8719 13.2607 11.8603 13.2882C11.8487 13.3157 11.8304 13.3375 11.8103 13.3514C11.7929 13.3635 11.7672 13.375 11.7248 13.375H1.59654C1.46185 13.375 1.41725 13.2282 1.49683 13.1498L2.48888 12.1725L2.67527 11.9889V11.7273V7.93939C2.67527 5.83086 3.78802 4.19545 5.653 3.76016L6.13594 3.64744V3.15152V2.63636ZM8.33021 15.6667C8.33021 16.5833 7.58021 17.3333 6.66355 17.3333C5.73855 17.3333 4.99688 16.5833 4.99688 15.6667H8.33021Z" fill="#181F33"/>
</svg>
