<svg width="147" height="47" viewBox="0 0 147 47" fill="none" xmlns="http://www.w3.org/2000/svg">
<path d="M1 45.7837C12.6799 47.3532 38.5705 45.7839 48.6933 26.9498C60.0786 5.76669 70.7584 -5.65915 83.4117 5.32728C96.065 16.3137 105.77 55.2007 118.423 26.9498C128.546 4.34919 144.338 51.7428 145.312 44.4185" stroke="#B00020"/>
<path opacity="0.4" d="M1 46.2436C10.0082 44.4464 38.5705 46.2438 48.6933 27.4098C60.0786 6.22663 71.9148 -5.3726 84.5682 5.61383C97.2215 16.6003 105.092 55.6606 117.745 27.4098C126.381 8.13042 140.863 40.7781 145.538 46.2435H147C146.857 47.3198 146.343 47.185 145.538 46.2435L1 46.2436Z" fill="#FAE1EA"/>
</svg>
