<svg width="24" height="24" viewBox="0 0 24 24" fill="none" xmlns="http://www.w3.org/2000/svg">
<path fill-rule="evenodd" clip-rule="evenodd" d="M12.7561 4.75611C12.7561 4.33852 12.4175 4 11.9999 4C11.5823 4 11.2438 4.33852 11.2438 4.75611V11.8779L8.93891 9.7083C8.63483 9.42208 8.15631 9.43656 7.87009 9.74063C7.58387 10.0447 7.59835 10.5232 7.90242 10.8094L11.4819 14.1787C11.7731 14.4528 12.2273 14.4527 12.5185 14.1786L16.0964 10.8093C16.4004 10.5231 16.4148 10.0445 16.1285 9.74051C15.8422 9.4365 15.3637 9.42213 15.0597 9.70841L12.7561 11.8777V4.75611Z" fill="#0937B2"/>
<path fill-rule="evenodd" clip-rule="evenodd" d="M12.7556 4.75611C12.7556 4.33852 12.417 4 11.9994 4C11.5819 4 11.2433 4.33852 11.2433 4.75611V11.8779L8.93842 9.7083C8.63435 9.42208 8.15582 9.43656 7.8696 9.74063C7.58339 10.0447 7.59786 10.5232 7.90194 10.8094L11.4814 14.1787C11.7726 14.4528 12.2268 14.4527 12.518 14.1786L16.0959 10.8093C16.3999 10.5231 16.4143 10.0445 16.128 9.74051C15.8417 9.4365 15.3632 9.42213 15.0592 9.70841L12.7556 11.8777V4.75611Z" fill="#181F33"/>
<path fill-rule="evenodd" clip-rule="evenodd" d="M12.7556 4.75611C12.7556 4.33852 12.417 4 11.9994 4C11.5819 4 11.2433 4.33852 11.2433 4.75611V11.8779L8.93842 9.7083C8.63435 9.42208 8.15582 9.43656 7.8696 9.74063C7.58339 10.0447 7.59786 10.5232 7.90194 10.8094L11.4814 14.1787C11.7726 14.4528 12.2268 14.4527 12.518 14.1786L16.0959 10.8093C16.3999 10.5231 16.4143 10.0445 16.128 9.74051C15.8417 9.4365 15.3632 9.42213 15.0592 9.70841L12.7556 11.8777V4.75611Z" fill="#181F33"/>
<path fill-rule="evenodd" clip-rule="evenodd" d="M12.7556 4.75611C12.7556 4.33852 12.417 4 11.9994 4C11.5819 4 11.2433 4.33852 11.2433 4.75611V11.8779L8.93842 9.7083C8.63435 9.42208 8.15582 9.43656 7.8696 9.74063C7.58339 10.0447 7.59786 10.5232 7.90194 10.8094L11.4814 14.1787C11.7726 14.4528 12.2268 14.4527 12.518 14.1786L16.0959 10.8093C16.3999 10.5231 16.4143 10.0445 16.128 9.74051C15.8417 9.4365 15.3632 9.42213 15.0592 9.70841L12.7556 11.8777V4.75611Z" fill="#181F33"/>
<path fill-rule="evenodd" clip-rule="evenodd" d="M12.7556 4.75611C12.7556 4.33852 12.417 4 11.9994 4C11.5819 4 11.2433 4.33852 11.2433 4.75611V11.8779L8.93842 9.7083C8.63435 9.42208 8.15582 9.43656 7.8696 9.74063C7.58339 10.0447 7.59786 10.5232 7.90194 10.8094L11.4814 14.1787C11.7726 14.4528 12.2268 14.4527 12.518 14.1786L16.0959 10.8093C16.3999 10.5231 16.4143 10.0445 16.128 9.74051C15.8417 9.4365 15.3632 9.42213 15.0592 9.70841L12.7556 11.8777V4.75611Z" fill="#181F33"/>
<path fill-rule="evenodd" clip-rule="evenodd" d="M12.7556 4.75611C12.7556 4.33852 12.417 4 11.9994 4C11.5819 4 11.2433 4.33852 11.2433 4.75611V11.8779L8.93842 9.7083C8.63435 9.42208 8.15582 9.43656 7.8696 9.74063C7.58339 10.0447 7.59786 10.5232 7.90194 10.8094L11.4814 14.1787C11.7726 14.4528 12.2268 14.4527 12.518 14.1786L16.0959 10.8093C16.3999 10.5231 16.4143 10.0445 16.128 9.74051C15.8417 9.4365 15.3632 9.42213 15.0592 9.70841L12.7556 11.8777V4.75611Z" fill="#181F33"/>
<path fill-rule="evenodd" clip-rule="evenodd" d="M4.72727 11C5.12893 11 5.45455 11.3224 5.45455 11.72V18.56H18.5455V11.72C18.5455 11.3224 18.8711 11 19.2727 11C19.6744 11 20 11.3224 20 11.72V19.28C20 19.6776 19.6744 20 19.2727 20H4.72727C4.32561 20 4 19.6776 4 19.28V11.72C4 11.3224 4.32561 11 4.72727 11Z" fill="#181F33"/>
<path fill-rule="evenodd" clip-rule="evenodd" d="M4.72727 11C5.12893 11 5.45455 11.3224 5.45455 11.72V18.56H18.5455V11.72C18.5455 11.3224 18.8711 11 19.2727 11C19.6744 11 20 11.3224 20 11.72V19.28C20 19.6776 19.6744 20 19.2727 20H4.72727C4.32561 20 4 19.6776 4 19.28V11.72C4 11.3224 4.32561 11 4.72727 11Z" fill="#181F33"/>
<path fill-rule="evenodd" clip-rule="evenodd" d="M4.72727 11C5.12893 11 5.45455 11.3224 5.45455 11.72V18.56H18.5455V11.72C18.5455 11.3224 18.8711 11 19.2727 11C19.6744 11 20 11.3224 20 11.72V19.28C20 19.6776 19.6744 20 19.2727 20H4.72727C4.32561 20 4 19.6776 4 19.28V11.72C4 11.3224 4.32561 11 4.72727 11Z" fill="#181F33"/>
<path fill-rule="evenodd" clip-rule="evenodd" d="M4.72727 11C5.12893 11 5.45455 11.3224 5.45455 11.72V18.56H18.5455V11.72C18.5455 11.3224 18.8711 11 19.2727 11C19.6744 11 20 11.3224 20 11.72V19.28C20 19.6776 19.6744 20 19.2727 20H4.72727C4.32561 20 4 19.6776 4 19.28V11.72C4 11.3224 4.32561 11 4.72727 11Z" fill="#181F33"/>
<path fill-rule="evenodd" clip-rule="evenodd" d="M4.72727 11C5.12893 11 5.45455 11.3224 5.45455 11.72V18.56H18.5455V11.72C18.5455 11.3224 18.8711 11 19.2727 11C19.6744 11 20 11.3224 20 11.72V19.28C20 19.6776 19.6744 20 19.2727 20H4.72727C4.32561 20 4 19.6776 4 19.28V11.72C4 11.3224 4.32561 11 4.72727 11Z" fill="#181F33"/>
<path fill-rule="evenodd" clip-rule="evenodd" d="M4.72727 11C5.12893 11 5.45455 11.3224 5.45455 11.72V18.56H18.5455V11.72C18.5455 11.3224 18.8711 11 19.2727 11C19.6744 11 20 11.3224 20 11.72V19.28C20 19.6776 19.6744 20 19.2727 20H4.72727C4.32561 20 4 19.6776 4 19.28V11.72C4 11.3224 4.32561 11 4.72727 11Z" fill="#181F33"/>
</svg>
