<svg width="24" height="24" viewBox="0 0 24 24" fill="none" xmlns="http://www.w3.org/2000/svg">
<path fill-rule="evenodd" clip-rule="evenodd" d="M12 8.00101C13.1 8.00101 14 7.10101 14 6.00101C14 4.90101 13.1 4.00101 12 4.00101C10.9 4.00101 10 4.90101 10 6.00101C10 7.10101 10.9 8.00101 12 8.00101ZM12 10.001C10.9 10.001 10 10.901 10 12.001C10 13.101 10.9 14.001 12 14.001C13.1 14.001 14 13.101 14 12.001C14 10.901 13.1 10.001 12 10.001ZM12 16.001C10.9 16.001 10 16.901 10 18.001C10 19.101 10.9 20.001 12 20.001C13.1 20.001 14 19.101 14 18.001C14 16.901 13.1 16.001 12 16.001Z" fill="#6A737D"/>
</svg>
