<svg width="21" height="18" viewBox="0 0 21 18" fill="none" xmlns="http://www.w3.org/2000/svg">
<path fill-rule="evenodd" clip-rule="evenodd" d="M12.9258 2.26275C12.9258 2.77332 12.7567 3.2444 12.4714 3.62303L16.9575 8.54895C17.3492 8.22427 17.8521 8.02911 18.4006 8.02911C19.6503 8.02911 20.6634 9.04217 20.6634 10.2919C20.6634 11.5415 19.6503 12.5546 18.4006 12.5546C17.5332 12.5546 16.7797 12.0665 16.4 11.3499L12.1888 14.0223C12.6417 14.4361 12.9258 15.0315 12.9258 15.6932C12.9258 16.9429 11.9127 17.956 10.663 17.956C9.41333 17.956 8.40026 16.9429 8.40026 15.6932C8.40026 15.1847 8.56805 14.7153 8.85128 14.3374L4.73933 11.646C4.32668 12.1976 3.6682 12.5546 2.92632 12.5546C1.67664 12.5546 0.663574 11.5415 0.663574 10.2919C0.663574 9.04217 1.67664 8.02911 2.92632 8.02911C3.63812 8.02911 4.27316 8.35778 4.68795 8.87163L9.03886 3.83823C8.6436 3.43084 8.40026 2.87521 8.40026 2.26275C8.40026 1.01307 9.41333 0 10.663 0C11.9127 0 12.9258 1.01307 12.9258 2.26275ZM16.4749 9.1031C16.2612 9.44855 16.1379 9.8558 16.1379 10.2919C16.1379 10.4086 16.1467 10.5233 16.1638 10.6353L11.5045 13.5921C11.3982 13.5495 11.288 13.5148 11.1745 13.4885V4.46744C11.4545 4.40274 11.7146 4.28607 11.9441 4.12813L16.4749 9.1031ZM10.4446 4.51509V13.4409C10.0574 13.478 9.69878 13.6126 9.39347 13.8199L5.07767 10.995C5.14997 10.7737 5.18907 10.5373 5.18907 10.2919C5.18907 10.0325 5.14545 9.78343 5.06515 9.55143L9.62645 4.27464C9.87574 4.40334 10.152 4.48707 10.4446 4.51509Z" fill="#181F33"/>
</svg>
