<svg width="17" height="16" viewBox="0 0 17 16" fill="none" xmlns="http://www.w3.org/2000/svg">
<path d="M16.4523 10.0337L15.2167 9.03366C15.2752 8.69435 15.3054 8.3479 15.3054 8.00145C15.3054 7.655 15.2752 7.30854 15.2167 6.96923L16.4523 5.96916C16.5455 5.89363 16.6122 5.79304 16.6435 5.68075C16.6749 5.56846 16.6694 5.4498 16.6277 5.34055L16.6108 5.29412C16.2706 4.3941 15.7613 3.55977 15.1073 2.83145L15.0734 2.79394C14.9941 2.70564 14.8883 2.64216 14.7701 2.61187C14.6519 2.58159 14.5268 2.58592 14.4113 2.62429L12.8777 3.1404C12.3118 2.70108 11.6798 2.35463 10.997 2.11175L10.7008 0.593791C10.6785 0.479573 10.62 0.374495 10.533 0.292516C10.4461 0.210538 10.3349 0.155541 10.2142 0.134831L10.1632 0.125902C9.18043 -0.0419672 8.14672 -0.0419672 7.16393 0.125902L7.113 0.134831C6.99227 0.155541 6.88105 0.210538 6.79412 0.292516C6.70719 0.374495 6.64866 0.479573 6.62632 0.593791L6.32828 2.1189C5.65087 2.36182 5.02003 2.70809 4.46079 3.14397L2.91588 2.62429C2.80037 2.58561 2.67516 2.58113 2.5569 2.61143C2.43863 2.64173 2.3329 2.70539 2.25377 2.79394L2.21981 2.83145C1.56666 3.56029 1.0574 4.39448 0.716396 5.29412L0.699419 5.34055C0.614533 5.56378 0.684328 5.8138 0.874849 5.96916L2.1255 6.97995C2.06702 7.31569 2.03872 7.65857 2.03872 7.99966C2.03872 8.34254 2.06702 8.68542 2.1255 9.01938L0.874849 10.0302C0.781655 10.1057 0.714955 10.2063 0.683619 10.3186C0.652282 10.4309 0.657793 10.5495 0.699419 10.6588L0.716396 10.7052C1.05782 11.6053 1.56337 12.4357 2.21981 13.1679L2.25377 13.2054C2.3331 13.2937 2.43883 13.3572 2.55702 13.3875C2.67522 13.4177 2.80033 13.4134 2.91588 13.375L4.46079 12.8554C5.02293 13.2929 5.65108 13.6393 6.32828 13.8804L6.62632 15.4055C6.64866 15.5198 6.70719 15.6248 6.79412 15.7068C6.88105 15.7888 6.99227 15.8438 7.113 15.8645L7.16393 15.8734C8.15575 16.0422 9.1714 16.0422 10.1632 15.8734L10.2142 15.8645C10.3349 15.8438 10.4461 15.7888 10.533 15.7068C10.62 15.6248 10.6785 15.5198 10.7008 15.4055L10.997 13.8876C11.6796 13.6453 12.3151 13.2978 12.8777 12.8589L14.4113 13.375C14.5268 13.4137 14.652 13.4182 14.7703 13.3879C14.8885 13.3576 14.9942 13.2939 15.0734 13.2054L15.1073 13.1679C15.7638 12.4339 16.2693 11.6053 16.6108 10.7052L16.6277 10.6588C16.7126 10.4391 16.6428 10.1891 16.4523 10.0337ZM13.8774 7.17996C13.9246 7.44962 13.9491 7.72643 13.9491 8.00323C13.9491 8.28004 13.9246 8.55684 13.8774 8.8265L13.7529 9.54263L15.162 10.6838C14.9484 11.1497 14.6788 11.5907 14.3585 11.9982L12.6079 11.4106L12.0156 11.8714C11.5648 12.2214 11.063 12.4964 10.5197 12.6893L9.80104 12.9446L9.46339 14.6769C8.93062 14.7341 8.39275 14.7341 7.85999 14.6769L7.52233 12.9411L6.8093 12.6821C6.27169 12.4893 5.77181 12.2142 5.32474 11.866L4.73243 11.4035L2.97058 11.9964C2.6499 11.5874 2.38204 11.1463 2.167 10.682L3.59119 9.53013L3.46858 8.81579C3.4233 8.5497 3.39878 8.27468 3.39878 8.00323C3.39878 7.73 3.42142 7.45677 3.46858 7.19068L3.59119 6.47634L2.167 5.32448C2.38015 4.85837 2.6499 4.41906 2.97058 4.0101L4.73243 4.603L5.32474 4.14047C5.77181 3.79223 6.27169 3.51721 6.8093 3.32434L7.52422 3.06896L7.86188 1.33313C8.39194 1.27598 8.93332 1.27598 9.46527 1.33313L9.80293 3.06539L10.5216 3.32077C11.063 3.51364 11.5667 3.78866 12.0175 4.13868L12.6098 4.59943L14.3603 4.01189C14.681 4.42084 14.9489 4.86194 15.1639 5.32626L13.7548 6.46741L13.8774 7.17996ZM8.66546 4.68157C6.83193 4.68157 5.34549 6.08882 5.34549 7.82465C5.34549 9.56048 6.83193 10.9677 8.66546 10.9677C10.499 10.9677 11.9854 9.56048 11.9854 7.82465C11.9854 6.08882 10.499 4.68157 8.66546 4.68157ZM10.1594 9.23903C9.9635 9.42508 9.73063 9.57261 9.47423 9.67313C9.21784 9.77366 8.94297 9.8252 8.66546 9.82479C8.10144 9.82479 7.57138 9.61585 7.17147 9.23903C6.97496 9.05352 6.81913 8.83306 6.71295 8.59033C6.60676 8.34759 6.55232 8.08738 6.55275 7.82465C6.55275 7.29068 6.77345 6.78886 7.17147 6.41027C7.57138 6.03167 8.10144 5.82451 8.66546 5.82451C9.22948 5.82451 9.75954 6.03167 10.1594 6.41027C10.356 6.59578 10.5118 6.81624 10.618 7.05897C10.7242 7.30171 10.7786 7.56192 10.7782 7.82465C10.7782 8.35862 10.5575 8.86044 10.1594 9.23903Z" fill="#181F33"/>
</svg>
