<svg width="16" height="16" viewBox="0 0 16 16" fill="none" xmlns="http://www.w3.org/2000/svg">
<path d="M15.7887 10.0337L14.5532 9.03366C14.6116 8.69435 14.6418 8.3479 14.6418 8.00145C14.6418 7.655 14.6116 7.30854 14.5532 6.96923L15.7887 5.96916C15.8819 5.89363 15.9486 5.79304 15.98 5.68075C16.0113 5.56846 16.0058 5.4498 15.9642 5.34055L15.9472 5.29412C15.607 4.3941 15.0977 3.55977 14.4438 2.83145L14.4098 2.79394C14.3305 2.70564 14.2247 2.64216 14.1066 2.61187C13.9884 2.58159 13.8632 2.58592 13.7477 2.62429L12.2141 3.1404C11.6482 2.70108 11.0163 2.35463 10.3334 2.11175L10.0373 0.593791C10.0149 0.479573 9.95639 0.374495 9.86946 0.292516C9.78253 0.210538 9.67131 0.155541 9.55058 0.134831L9.49965 0.125902C8.51686 -0.0419672 7.48314 -0.0419672 6.50035 0.125902L6.44942 0.134831C6.32869 0.155541 6.21747 0.210538 6.13054 0.292516C6.04361 0.374495 5.98509 0.479573 5.96275 0.593791L5.6647 2.1189C4.98729 2.36182 4.35646 2.70809 3.79722 3.14397L2.2523 2.62429C2.13679 2.58561 2.01159 2.58113 1.89332 2.61143C1.77506 2.64173 1.66933 2.70539 1.59019 2.79394L1.55624 2.83145C0.903085 3.56029 0.393828 4.39448 0.0528215 5.29412L0.0358444 5.34055C-0.0490412 5.56378 0.0207537 5.8138 0.211275 5.96916L1.46192 6.97995C1.40345 7.31569 1.37515 7.65857 1.37515 7.99966C1.37515 8.34254 1.40345 8.68542 1.46192 9.01938L0.211275 10.0302C0.118081 10.1057 0.0513812 10.2063 0.0200443 10.3186C-0.0112925 10.4309 -0.00578166 10.5495 0.0358444 10.6588L0.0528215 10.7052C0.39425 11.6053 0.899791 12.4357 1.55624 13.1679L1.59019 13.2054C1.66952 13.2937 1.77525 13.3572 1.89345 13.3875C2.01164 13.4177 2.13676 13.4134 2.2523 13.375L3.79722 12.8554C4.35935 13.2929 4.9875 13.6393 5.6647 13.8804L5.96275 15.4055C5.98509 15.5198 6.04361 15.6248 6.13054 15.7068C6.21747 15.7888 6.32869 15.8438 6.44942 15.8645L6.50035 15.8734C7.49217 16.0422 8.50783 16.0422 9.49965 15.8734L9.55058 15.8645C9.67131 15.8438 9.78253 15.7888 9.86946 15.7068C9.95639 15.6248 10.0149 15.5198 10.0373 15.4055L10.3334 13.8876C11.016 13.6453 11.6515 13.2978 12.2141 12.8589L13.7477 13.375C13.8632 13.4137 13.9884 13.4182 14.1067 13.3879C14.2249 13.3576 14.3307 13.2939 14.4098 13.2054L14.4438 13.1679C15.1002 12.4339 15.6058 11.6053 15.9472 10.7052L15.9642 10.6588C16.049 10.4391 15.9792 10.1891 15.7887 10.0337ZM13.2139 7.17996C13.261 7.44962 13.2855 7.72643 13.2855 8.00323C13.2855 8.28004 13.261 8.55684 13.2139 8.8265L13.0894 9.54263L14.4985 10.6838C14.2848 11.1497 14.0152 11.5907 13.6949 11.9982L11.9444 11.4106L11.352 11.8714C10.9012 12.2214 10.3994 12.4964 9.85616 12.6893L9.13747 12.9446L8.79981 14.6769C8.26705 14.7341 7.72918 14.7341 7.19642 14.6769L6.85876 12.9411L6.14572 12.6821C5.60811 12.4893 5.10823 12.2142 4.66117 11.866L4.06885 11.4035L2.30701 11.9964C1.98633 11.5874 1.71847 11.1463 1.50342 10.682L2.92761 9.53013L2.805 8.81579C2.75973 8.5497 2.73521 8.27468 2.73521 8.00323C2.73521 7.73 2.75784 7.45677 2.805 7.19068L2.92761 6.47634L1.50342 5.32448C1.71658 4.85837 1.98633 4.41906 2.30701 4.0101L4.06885 4.603L4.66117 4.14047C5.10823 3.79223 5.60811 3.51721 6.14572 3.32434L6.86065 3.06896L7.1983 1.33313C7.72837 1.27598 8.26975 1.27598 8.8017 1.33313L9.13935 3.06539L9.85805 3.32077C10.3994 3.51364 10.9031 3.78866 11.3539 4.13868L11.9462 4.59943L13.6968 4.01189C14.0174 4.42084 14.2853 4.86194 14.5004 5.32626L13.0912 6.46741L13.2139 7.17996ZM8.00189 4.68157C6.16836 4.68157 4.68192 6.08882 4.68192 7.82465C4.68192 9.56048 6.16836 10.9677 8.00189 10.9677C9.83542 10.9677 11.3219 9.56048 11.3219 7.82465C11.3219 6.08882 9.83542 4.68157 8.00189 4.68157ZM9.49587 9.23903C9.29992 9.42508 9.06705 9.57261 8.81066 9.67313C8.55426 9.77366 8.2794 9.8252 8.00189 9.82479C7.43787 9.82479 6.90781 9.61585 6.5079 9.23903C6.31139 9.05352 6.15556 8.83306 6.04937 8.59033C5.94319 8.34759 5.88875 8.08738 5.88918 7.82465C5.88918 7.29068 6.10988 6.78886 6.5079 6.41027C6.90781 6.03167 7.43787 5.82451 8.00189 5.82451C8.5659 5.82451 9.09597 6.03167 9.49587 6.41027C9.69239 6.59578 9.84822 6.81624 9.9544 7.05897C10.0606 7.30171 10.115 7.56192 10.1146 7.82465C10.1146 8.35862 9.89389 8.86044 9.49587 9.23903Z" fill="#181F33"/>
</svg>
