<svg width="32" height="32" viewBox="0 0 32 32" fill="none" xmlns="http://www.w3.org/2000/svg">
<g clip-path="url(#clip0_1445_6453)">
<path d="M-5 0.00100708H37V32.001H-5V0.00100708Z" fill="#012169"/>
<path d="M-0.078125 0.00100708L15.9344 12.0677L31.8812 0.00100708H37V4.13434L21.25 16.0677L37 27.9343V32.001H31.75L16 20.0677L0.315625 32.001H-5V28.001L10.6844 16.1343L-5 4.26767V0.00100708H-0.078125Z" fill="white"/>
<path d="M22.825 18.7343L37 29.3343V32.001L19.2156 18.7343H22.825ZM10.75 20.0677L11.1437 22.401L-1.45625 32.001H-5L10.75 20.0677ZM37 0.00100708V0.201007L20.6594 12.7343L20.7906 9.80101L33.7188 0.00100708H37ZM-5 0.00100708L10.6844 11.7343H6.74687L-5 2.80101V0.00100708Z" fill="#C8102E"/>
<path d="M10.8156 0.00100708V32.001H21.3156V0.00100708H10.8156ZM-5 10.6677V21.3343H37V10.6677H-5Z" fill="white"/>
<path d="M-5 12.8677V19.2677H37V12.8677H-5ZM12.9156 0.00100708V32.001H19.2156V0.00100708H12.9156Z" fill="#C8102E"/>
</g>
<defs>
<clipPath id="clip0_1445_6453">
<rect width="42" height="32" fill="white" transform="translate(-5 0.00100708)"/>
</clipPath>
</defs>
</svg>
