<svg width="81" height="28" viewBox="0 0 81 28" fill="none" xmlns="http://www.w3.org/2000/svg">
<path fill-rule="evenodd" clip-rule="evenodd" d="M64.9441 23.3197V16.8682C64.9441 15.3864 64.1382 14.8795 62.8962 14.8795H62.8611C61.45 14.8953 60.3628 16.0993 60.3628 17.4526V23.3197H57.4396V12.6481H60.3628V14.0402C60.7968 13.1765 62.4353 12.3818 64.252 12.3818C66.6918 12.3818 67.868 13.7064 67.868 15.7834V23.3197H64.9441ZM70.061 17.9703C70.061 14.6993 72.524 12.3825 75.9553 12.3825C78.2343 12.3825 79.6184 13.3302 80.3532 14.3023L78.4415 16.0275C77.9103 15.2773 77.1052 14.8795 76.0922 14.8795C74.3219 14.8795 73.0747 16.118 73.0747 17.9746C73.0747 19.8312 74.3182 21.0905 76.0929 21.0905C77.1052 21.0905 77.9103 20.649 78.4423 19.9439L80.3532 21.6469C79.6184 22.6398 78.2343 23.589 75.9553 23.589C72.524 23.5818 70.061 21.2635 70.061 17.9703ZM33.6732 21.924L34.9391 19.959C35.7449 20.6863 37.4022 21.4171 38.7856 21.4171C40.0523 21.4171 40.6501 20.9332 40.6501 20.2706C40.6501 19.5755 39.6272 19.3762 38.3863 19.1344C36.4727 18.7615 34.0405 18.2875 34.0405 15.7389C34.0405 13.9497 35.6738 12.3825 38.5978 12.3825C40.4862 12.3825 41.9834 12.9999 43.0892 13.8406L41.9168 15.7611C41.2486 15.0748 39.9819 14.5241 38.6255 14.5241C37.566 14.5241 36.8747 14.9886 36.8747 15.5852C36.8747 16.1864 37.8158 16.3711 38.9866 16.6009C40.913 16.979 43.4611 17.4791 43.4611 20.1571C43.4611 22.1006 41.7327 23.5817 38.6487 23.5817C36.7138 23.5817 34.8456 22.9636 33.6732 21.924ZM45.6699 24.9739C45.9236 25.0866 46.3141 25.1505 46.5917 25.1505C47.3511 25.1505 47.8591 24.9509 48.1367 24.3765L48.5505 23.4734L44.0351 12.6481H47.1663L50.0671 20.0717L52.9678 12.6481H56.1215L50.8953 25.0629C50.0671 27.0746 48.5931 27.6073 46.683 27.6482C46.3388 27.6482 45.5988 27.58 45.2322 27.4946L45.6692 24.9746L45.6699 24.9739Z" fill="#34D0EC"/>
<path fill-rule="evenodd" clip-rule="evenodd" d="M39.6221 3.29325L41.3265 9.69232H43.5232L46.2908 0.374786H43.9609L42.2722 7.10771L40.4391 0.374786H38.8245L36.9757 7.10771L35.2713 0.374786H32.9572L35.7367 9.69232H37.9334L39.6221 3.29325ZM49.8951 2.7792C47.5809 2.7792 46.1818 4.39961 46.1818 6.31294C46.1818 8.24064 47.5809 9.86104 49.8951 9.86104C52.2212 9.86104 53.6203 8.24064 53.6203 6.31294C53.6203 4.39961 52.225 2.7792 49.8951 2.7792ZM49.8951 4.35869C51.0436 4.35869 51.7005 5.26617 51.7005 6.31294H51.7012C51.7012 7.37407 51.0436 8.28228 49.8951 8.28228C48.7451 8.28228 48.1054 7.37407 48.1054 6.31294C48.1054 5.26617 48.7451 4.35869 49.8951 4.35869ZM54.9843 9.69233V2.94433H56.8331V3.86761C56.9588 3.20351 58.2016 2.7792 59.0777 2.7792V4.51233C58.9445 4.48648 58.7717 4.4714 58.5689 4.4714H58.5495C57.5806 4.48217 56.8331 5.46935 56.8331 6.24474V9.69592H54.9851V9.69233H54.9843ZM64.7808 9.69232L62.9155 7.09263L62.0716 7.9592V9.69232H60.2228V0.374786H62.0716V5.94894L64.7381 2.94432H67.0089L64.2294 6.00494L67.0987 9.69232H64.7808ZM69.8551 9.69232H71.9224V0.374786H69.8551V9.69232ZM78.5439 9.69233V5.6115C78.5439 4.67386 78.0359 4.35509 77.2495 4.35509H77.2271C76.3277 4.36586 75.6484 5.15776 75.6484 6.02074V9.69233H73.7981V2.94432H75.6476V3.82668C75.7838 3.27889 76.957 2.77991 78.1069 2.77991C79.6505 2.77991 80.3927 3.61632 80.3927 4.92945V9.69233H78.5446H78.5439Z" fill="#0937B2"/>
<path fill-rule="evenodd" clip-rule="evenodd" d="M25.6882 13.755H19.1571C18.5316 13.755 17.9454 14.047 17.5867 14.535L14.9402 18.0677C14.5727 18.5641 13.9778 18.8602 13.3391 18.8602H6.30065C5.6751 18.8602 5.08893 19.1518 4.72585 19.6398L0.793221 24.9706C0.465137 25.4127 0.797595 26.0217 1.36627 26.0217H16.9305C17.5692 26.0217 18.1641 25.7255 18.5316 25.2292L26.2569 14.8102C26.5849 14.364 26.2525 13.755 25.6882 13.755Z" fill="#34D0EC"/>
<path fill-rule="evenodd" clip-rule="evenodd" d="M17.1906 8.56705H24.4604C25.0307 8.56705 25.566 8.30408 25.895 7.85744L29.8919 2.45189C30.2209 2.00942 29.8875 1.39999 29.3171 1.39999H13.5886C13.027 1.39999 12.4961 1.65879 12.1715 2.10126L4.33572 12.7037C4.00667 13.1461 4.3401 13.7555 4.91046 13.7555H11.4651C12.0881 13.7555 12.676 13.4675 13.0358 12.9792L15.7779 9.26414C16.0981 8.83002 16.6246 8.56705 17.1906 8.56705Z" fill="#0937B2"/>
</svg>
